<?xml version="1.0" encoding="UTF-8" standalone="no"?>
<!-- Created with Inkscape (http://www.inkscape.org/) -->

<svg
   width="219.97746mm"
   height="57.094761mm"
   viewBox="0 0 219.97746 57.094761"
   version="1.1"
   id="svg1"
   xml:space="preserve"
   sodipodi:docname="Bluejay Inverted With Text.svg"
   inkscape:version="1.3.2 (091e20e, 2023-11-25, custom)"
   xmlns:inkscape="http://www.inkscape.org/namespaces/inkscape"
   xmlns:sodipodi="http://sodipodi.sourceforge.net/DTD/sodipodi-0.dtd"
   xmlns="http://www.w3.org/2000/svg"
   xmlns:svg="http://www.w3.org/2000/svg"><sodipodi:namedview
     id="namedview1"
     pagecolor="#ffffff"
     bordercolor="#000000"
     borderopacity="0.25"
     inkscape:showpageshadow="2"
     inkscape:pageopacity="0.0"
     inkscape:pagecheckerboard="true"
     inkscape:deskcolor="#d1d1d1"
     inkscape:document-units="mm"
     inkscape:zoom="2.2916788"
     inkscape:cx="519.70635"
     inkscape:cy="307.41656"
     inkscape:window-width="3840"
     inkscape:window-height="2054"
     inkscape:window-x="-11"
     inkscape:window-y="-11"
     inkscape:window-maximized="1"
     inkscape:current-layer="layer1" /><defs
     id="defs1" /><g
     inkscape:label="Layer 1"
     inkscape:groupmode="layer"
     id="layer1"
     transform="translate(-83.425624,-71.771489)"><path
       style="fill:none;fill-opacity:1;stroke:#ffffff;stroke-width:1.365;stroke-linejoin:round;stroke-dasharray:none;stroke-opacity:1"
       d="m 111.00763,72.453957 8.63151,3.341552 7.85087,3.723389 3.78112,2.251353 4.87792,3.925435 3.92544,5.079973 1.96272,3.319299 0.37522,2.742033 -0.0289,1.962716 1.09681,1.241133 0.3175,1.15454 0.60613,0.60613 0.0866,1.06795 4.64702,4.87793 1.41431,1.76067 0.83704,0.83704 1.29886,1.93385 0.54841,1.38545 -0.23091,0.75045 -0.54841,0.25977 h -1.41431 l -2.3668,-0.89477 -4.82021,-2.07817 -2.02044,-1.15453 h -0.92363 l -0.23091,0.66385 -0.46181,0.3175 -0.98136,-0.69272 c 0,0 -0.0866,-0.11545 -0.20205,-0.11545 -0.11545,0 -0.66386,0.46181 -0.66386,0.46181 l -0.31749,0.54841 -0.49068,-0.23091 -0.635,-0.51954 -0.46182,0.49068 -0.3175,0.34636 -0.92363,-0.14432 -0.34636,-0.0866 -1.21227,0.9525 -0.63499,1.24112 -0.83704,2.42454 -0.25977,1.29886 -0.11546,2.02044 0.34637,1.61635 0.0577,1.27 -0.75045,1.47203 -1.06795,1.61636 c 0,0 -0.57727,0.0577 -0.92363,0.11545 -0.34636,0.0577 -0.69272,0.14432 -0.69272,0.14432 l -1.03909,0.89477 -1.06795,0.28863 -1.06795,0.54841 -0.83704,0.635 -1.29885,0.0577 c 0,0 -1.21227,0.0289 -1.38545,-0.2309 -0.17318,-0.25977 -0.86591,-1.15454 -0.86591,-1.15454 0,0 -0.8659,-0.25978 -0.98135,-0.20205 -0.11546,0.0577 -0.77932,0.37523 -0.77932,0.37523 0,0 -0.54841,0.0866 -0.83704,-0.0866 -0.28863,-0.17318 -0.8659,-0.57727 -0.89477,-0.69273 -0.0289,-0.11545 -0.43295,-0.8659 -0.43295,-0.8659 l -0.75045,-0.80818 -0.69272,-0.11545 -1.06795,0.51954 -0.86591,0.28864 -0.72158,-0.3175 -0.75045,-0.49068 -1.61636,0.57727 -0.46182,-0.49068 c 0,0 -0.2309,-0.20205 -0.37522,-0.49068 -0.14432,-0.28864 -0.40409,-0.98136 -0.40409,-0.98136 l -0.57727,-0.77931 -1.12568,-0.77932 -1.64521,-0.72159 0.0577,-1.09681 -0.98136,-1.12567 -0.5484,-0.80818 -0.11546,-1.35659 -1.5009,-0.14431 -0.89476,0.49068 -0.9525,0.28863 -1.26999,-0.0289 c 0,0 -0.634999,-0.0866 -0.779319,-0.0866 -0.144317,0 -0.721585,0.635 -1.010221,0.635 -0.288634,0 -1.154539,-0.0577 -1.154539,-0.0577 0,0 -0.808177,-0.23091 -0.923631,-0.17318 -0.115454,0.0577 -0.952495,0.77931 -0.952495,0.77931 0,0 -0.461817,0.14432 -0.779314,0.17318 -0.3175,0.0289 -1.039085,0.0577 -1.039085,0.0577 l -0.721587,0.63499 -0.721588,0.34637 -0.750451,0.0289 -0.808178,0.3175 -0.375224,0.49068 -0.634997,0.60613 -0.49068,0.23091 -0.808178,0.20204 -0.952495,0.3175 -0.317497,0.60614 -0.865905,0.37522 -0.894768,0.0289 -0.952494,-0.37522 v -0.54841 l 3.867705,-4.41611 2.39567,-2.71317 -1.500902,-0.75045 2.366807,-2.33794 -1.472039,-0.51954 -0.634995,0.17318 3.694526,-3.9543 -0.981359,-0.46182 -0.981358,0.0577 2.539987,-3.20385 2.424531,-2.10703 -2.107034,-0.43295 1.443176,-1.587495 2.511123,-1.67408 2.713168,-3.983162 -1.067949,0.05773 6.494279,-5.830424 0.25977,-0.259771 0.0866,-0.779314 -0.95249,-0.779315 1.70294,-0.779314 -1.52976,-1.183402 0.60613,-0.894768 -0.46181,-0.721587 3.89657,-1.645219 0.17318,-0.634997 -3.98316,-4.64702 1.35658,-0.115454 h 1.84727 l -0.34637,-1.356585 -0.31749,-0.519541 1.47203,-0.144319 1.03909,0.606134 0.37522,-0.259771 z"
       id="path1"
       inkscape:label="Outline" /><ellipse
       style="display:inline;fill:#5e29ff;fill-opacity:1;stroke:#ffffff;stroke-width:1.03672;stroke-linecap:round;stroke-linejoin:round;stroke-dasharray:none;stroke-opacity:1"
       id="path10"
       cx="127.9843"
       cy="96.292191"
       rx="0.31206277"
       ry="0.36978978" /><path
       style="fill:none;stroke:#ffffff;stroke-width:1.365;stroke-linejoin:round;stroke-dasharray:none;stroke-opacity:1"
       d="m 104.28377,116.29098 h 1.76067 l 0.635,0.51954 2.33794,-0.95249 1.64522,0.69272 1.29885,-0.40409 0.51955,-0.98136 -0.0577,-1.06795 0.60613,-0.77931 -1.15454,-1.67408 0.86591,-1.87613 -1.67408,-2.22249 -0.11546,-1.90499 -1.15453,-1.03908 0.98135,-1.27 -0.98135,-1.24113 1.35658,-1.01022 v -0.57727 l -2.07817,-2.280214 1.09681,-1.039084 -1.41431,-2.193626 0.66386,-1.039085 -0.66386,-1.125675 -0.49068,-1.067949 -0.28863,-1.154541 -1.32773,-0.548404 0.0866,-1.096815 -0.98135,-1.096811"
       id="path2" /><path
       style="fill:none;stroke:#ffffff;stroke-width:1.365;stroke-linejoin:round;stroke-dasharray:none;stroke-opacity:1"
       d="m 109.53692,80.788893 2.82863,2.020443 -1.78954,0.49068 2.65544,1.933853 -2.74203,0.25977 2.25135,0.548407 3.78112,2.828621 h 2.91521 l 2.56885,0.606134 v -0.865904 l 1.96271,-0.346361 1.12568,0.202044 c 0,0 0.37523,-0.837041 0.54841,-0.808178 0.17318,0.02886 2.65544,0.375224 2.65544,0.375224 0,0 0.69272,-0.894768 0.80817,-0.894768 0.11546,0 1.18341,0.692724 1.18341,0.692724 l 0.69272,-0.837041 4.93566,3.203848 0.92363,-0.05773 1.5009,2.48226 0.57727,1.904989 0.46182,0.865905 0.60613,0.808177 0.0577,1.327719 1.41431,1.269995 1.12567,0.259771"
       id="path3" /><path
       style="fill:none;stroke:#ffffff;stroke-width:1.365;stroke-linejoin:round;stroke-dasharray:none;stroke-opacity:1"
       d="m 116.49302,88.755214 2.7709,2.799757 0.89477,0.23091 4.56043,3.088391 1.21226,-0.375224 1.76068,-0.432954 1.06794,0.432954 1.47204,1.125675 1.64522,1.818399 1.1834,1.183405 1.5009,0.692724 0.69273,-0.14432 1.44317,-1.443172 -0.635,-1.269995 1.06795,-1.327719 -1.32772,-2.424533 0.0866,-2.56885"
       id="path4" /><path
       style="fill:none;stroke:#ffffff;stroke-width:1.365;stroke-linejoin:round;stroke-dasharray:none;stroke-opacity:1"
       d="m 124.60366,94.816545 0.11546,2.049309 0.40409,1.58749 1.06794,1.125677 0.9525,0.692729 1.41431,0.0289 1.73181,-0.461818 0.69272,-0.750451 0.43295,-0.808178 -0.0866,-1.356582"
       id="path5" /><path
       style="fill:none;stroke:#ffffff;stroke-width:1.365;stroke-linejoin:round;stroke-dasharray:none;stroke-opacity:1"
       d="m 130.53958,99.649705 c 0.15307,0.112252 1.11232,1.214365 1.11232,1.214365 l -1.56133,2.19403 6.53106,0.11225 1.63277,-1.77563 1.18375,-0.32655 0.38778,-0.6327 0.79598,-0.28573 0.53065,-0.0408 0.61228,-1.183756"
       id="path6" /><path
       style="fill:none;stroke:#ffffff;stroke-width:1.365;stroke-linecap:round;stroke-linejoin:round;stroke-dasharray:none;stroke-opacity:1"
       d="m 140.68313,104.47656 1.24499,1.02048"
       id="path7" /><path
       style="fill:none;stroke:#ffffff;stroke-width:1.365;stroke-linecap:round;stroke-linejoin:round;stroke-dasharray:none;stroke-opacity:1"
       d="m 135.00927,111.70155 c 0.0204,-0.10205 0.95925,-2.30628 0.95925,-2.30628 l -3.10225,-1.81645 2.71447,-0.16328 -1.10211,-2.79611 0.12245,-0.40819 0.69393,-0.0204 8.46997,4.42888 2.83693,1.83686 1.51031,0.61228 0.87761,0.59188 3.51044,2.93898"
       id="path8" /><path
       style="fill:none;stroke:#ffffff;stroke-width:1.365;stroke-linecap:round;stroke-linejoin:round;stroke-dasharray:none;stroke-opacity:1"
       d="m 119.09073,91.468381 -1.06794,2.511123 v 1.154541 l -1.32772,1.241129 v 2.539987 l 1.09681,2.135899 -0.34636,1.12567 0.46181,0.83705 -0.75045,1.03908 -1.73181,0.635 0.80818,1.26999 -1.64522,1.90499 0.86591,1.44317 0.23091,1.06795 1.99158,1.47204 -0.72159,2.28022 -0.0866,1.99158 3.43475,2.85748 1.87613,1.76067 h 1.01022 l 1.09681,-0.95249 3.14612,2.4534 1.76067,-0.57728 1.09682,0.54841 1.99158,0.11546"
       id="path9" /><path
       id="text1"
       style="font-weight:bold;font-size:16.9333px;font-family:Poppins;-inkscape-font-specification:'Poppins, Bold';fill:#ffffff;stroke:#ffffff;stroke-width:0.404945;stroke-linecap:round;stroke-linejoin:round;stroke-opacity:1;fill-opacity:1;image-rendering:auto"
       d="m 179.88305,81.091887 v 13.2684 h 3.48422 v -13.2684 z m 43.20381,0.537684 c -1.3851,0 -2.62862,0.275305 -3.72855,0.82514 -1.08637,0.537883 -1.93337,1.296748 -2.54444,2.276888 -0.61108,0.968188 -0.91628,2.073996 -0.91628,3.317101 0,1.243105 0.3052,2.348914 0.91628,3.317101 0.61107,0.968191 1.45807,1.727052 2.54444,2.276888 1.09993,0.537884 2.34345,0.806529 3.72855,0.806529 1.69744,0 3.14963,-0.38735 4.35821,-1.164295 1.20858,-0.788899 2.01723,-1.865543 2.42462,-3.228177 h -3.82958 c -0.28517,0.525929 -0.69211,0.9266 -1.22171,1.201518 -0.51602,0.274918 -1.10608,0.413603 -1.77147,0.413603 -1.07279,0 -1.94249,-0.329033 -2.60788,-0.986443 -0.6654,-0.657412 -0.99851,-1.537054 -0.99851,-2.636724 0,-1.09967 0.33311,-1.977243 0.99851,-2.634654 0.66539,-0.657413 1.53509,-0.986446 2.60788,-0.986446 0.66539,0 1.25545,0.136619 1.77147,0.411536 0.5296,0.274917 0.93654,0.675589 1.22171,1.201519 h 3.82958 c -0.40739,-1.362636 -1.21604,-2.437214 -2.42462,-3.226109 -1.20858,-0.788893 -2.66077,-1.184975 -4.35821,-1.184975 z m -56.62614,0.144763 v 12.585953 h 6.66066 c 1.49374,0 2.65351,-0.304464 3.48186,-0.914062 0.84193,-0.621552 1.264,-1.458713 1.264,-2.510571 0,-0.72913 -0.25173,-1.373878 -0.75417,-1.935665 -0.50244,-0.573741 -1.16632,-0.938594 -1.99467,-1.093982 0.7333,-0.191247 1.31578,-0.531531 1.75033,-1.0216 0.44812,-0.490071 0.67194,-1.105659 0.67194,-1.846742 0,-1.004046 -0.4145,-1.79873 -1.24285,-2.384424 -0.81478,-0.585693 -1.94663,-0.878907 -3.39965,-0.878907 z m 98.7304,0.142693 v 2.438193 h -1.38615 v 2.545731 h 1.38615 v 3.980935 c 0,1.231152 0.35113,2.122046 1.05725,2.671873 0.70613,0.537883 1.69271,0.806528 2.9556,0.806528 h 1.77148 v -2.599494 h -1.24286 c -0.38022,0 -0.65229,-0.06499 -0.81526,-0.196462 -0.16295,-0.131483 -0.24434,-0.348467 -0.24434,-0.647289 v -4.016091 h 2.28131 V 84.35522 h -2.28131 v -2.438193 z m -60.5168,2.295499 c -1.1271,0 -2.12645,0.208258 -2.99552,0.62661 -0.8691,0.418353 -1.54811,1.016031 -2.03697,1.792972 -0.47528,0.776941 -0.71189,1.685743 -0.71189,2.725647 0,1.039906 0.24416,1.948708 0.73303,2.725649 0.48886,0.776941 1.16787,1.374616 2.03696,1.792968 0.86909,0.418353 1.86086,0.626613 2.97439,0.626613 0.9234,0 1.75762,-0.147864 2.5045,-0.446697 0.74688,-0.298821 1.36485,-0.712812 1.85371,-1.23874 0.50243,-0.52593 0.84833,-1.116945 1.03845,-1.774358 h -3.70741 c -0.33949,0.645458 -0.94233,0.967834 -1.81142,0.967834 -0.58391,0 -1.07982,-0.161189 -1.4872,-0.483918 -0.39381,-0.334682 -0.61761,-0.811583 -0.67194,-1.433136 h 7.88237 c 0.0408,-0.310777 0.0611,-0.61065 0.0611,-0.897519 0,-1.004048 -0.24417,-1.881621 -0.73302,-2.634656 -0.47529,-0.753034 -1.14151,-1.332803 -1.99703,-1.739204 -0.85551,-0.406398 -1.83216,-0.610065 -2.93209,-0.610065 z m 41.1034,0 c -1.12709,0 -2.12408,0.208258 -2.99318,0.62661 -0.86909,0.418353 -1.54809,1.016031 -2.03696,1.792972 -0.47528,0.776941 -0.71423,1.685743 -0.71423,2.725647 0,1.039906 0.24417,1.948708 0.73303,2.725649 0.48886,0.776941 1.16787,1.374616 2.03696,1.792968 0.86909,0.418353 1.86086,0.626613 2.97438,0.626613 0.92341,0 1.75998,-0.147864 2.50686,-0.446697 0.74687,-0.298821 1.36484,-0.712812 1.8537,-1.23874 0.50245,-0.52593 0.84834,-1.116945 1.03846,-1.774358 h -3.70741 c -0.33949,0.645458 -0.94468,0.967834 -1.81377,0.967834 -0.58392,0 -1.0798,-0.161189 -1.4872,-0.483918 -0.39381,-0.334682 -0.61762,-0.811583 -0.67194,-1.433136 h 7.88237 c 0.0408,-0.310777 0.0634,-0.61065 0.0634,-0.897519 0,-1.004048 -0.24651,-1.881621 -0.73537,-2.634656 -0.47528,-0.753034 -1.13918,-1.332803 -1.99468,-1.739204 -0.8555,-0.406398 -1.8345,-0.610065 -2.93445,-0.610065 z m 11.87642,0 c -0.96415,0 -1.80072,0.136619 -2.50686,0.411536 -0.69255,0.274918 -1.22157,0.653089 -1.58822,1.131207 -0.35306,0.466163 -0.52861,0.985544 -0.52861,1.559285 0,0.681317 0.1959,1.225266 0.5897,1.631666 0.3938,0.394446 0.86179,0.687661 1.40496,0.878908 0.54319,0.179294 1.2222,0.351731 2.03696,0.519073 0.76047,0.16734 1.31217,0.321868 1.65166,0.465303 0.33949,0.131483 0.50747,0.341806 0.50747,0.628678 0,0.239058 -0.12208,0.436065 -0.36651,0.591454 -0.23086,0.143434 -0.56396,0.215076 -0.9985,0.215076 -0.47529,0 -0.87466,-0.107458 -1.20056,-0.322615 -0.32592,-0.215152 -0.50903,-0.497115 -0.54978,-0.843751 h -3.44193 c 0.0543,0.64546 0.30371,1.231886 0.75183,1.757816 0.44812,0.513974 1.06089,0.921305 1.83491,1.220126 0.77403,0.298833 1.65651,0.446697 2.64781,0.446697 0.92341,0 1.73208,-0.12996 2.42462,-0.392919 0.70614,-0.26297 1.24038,-0.623235 1.60702,-1.07744 0.38022,-0.466168 0.57091,-0.990138 0.57092,-1.575832 -0.0136,-0.69327 -0.22462,-1.243878 -0.63202,-1.650279 -0.39378,-0.418352 -0.8542,-0.718226 -1.38381,-0.897519 -0.5296,-0.191248 -1.21616,-0.381595 -2.05809,-0.572841 -0.7333,-0.143435 -1.27511,-0.286713 -1.62818,-0.430148 -0.33948,-0.143436 -0.50983,-0.358352 -0.50983,-0.645221 0,-0.239059 0.10933,-0.424815 0.32658,-0.556298 0.21727,-0.143434 0.52769,-0.215074 0.93508,-0.215074 0.47528,0 0.85665,0.100798 1.14183,0.303998 0.29874,0.203201 0.47431,0.478505 0.52861,0.82514 h 3.21873 c -0.12221,-1.027951 -0.59775,-1.851797 -1.4261,-2.473348 -0.81478,-0.621553 -1.93384,-0.932678 -3.35969,-0.932678 z m -87.71155,0.01862 h 2.2813 c 0.57034,0 1.0052,0.112054 1.30393,0.339155 0.31235,0.227105 0.4699,0.556138 0.4699,0.986444 0,0.430306 -0.15755,0.759339 -0.4699,0.986444 -0.29873,0.215153 -0.73359,0.322612 -1.30393,0.322612 h -2.2813 z m 69.1134,0.01654 c -0.74688,0 -1.42589,0.161187 -2.03697,0.483916 -0.61107,0.310777 -1.11973,0.742677 -1.52713,1.292512 v -1.668891 h -3.48421 v 10.005071 h 3.48421 v -4.6427 c 0,-0.824753 0.21625,-1.39993 0.6508,-1.722659 0.43454,-0.334682 1.08799,-0.50046 1.95707,-0.50046 h 0.95623 z m -53.2641,0.107538 v 5.846287 c 0,0.872566 0.18312,1.631429 0.54978,2.276891 0.36663,0.64546 0.88287,1.14027 1.54826,1.486909 0.66541,0.334684 1.43103,0.502529 2.3001,0.502529 0.7333,0 1.39954,-0.132035 1.99703,-0.394994 0.61108,-0.274914 1.09183,-0.633115 1.4449,-1.075376 v 1.362825 h 3.48423 V 84.355222 h -3.48423 v 5.432683 c 0,0.669366 -0.1959,1.190814 -0.5897,1.561354 -0.39381,0.370542 -0.9304,0.554229 -1.60937,0.554229 -0.6654,0 -1.19442,-0.183687 -1.58823,-0.554229 -0.3938,-0.37054 -0.59205,-0.891988 -0.59205,-1.561354 v -5.432683 z m 18.84014,2.314113 c 0.61108,0 1.11975,0.154527 1.52713,0.465304 0.40739,0.310776 0.6132,0.729358 0.6132,1.255287 h -4.36055 c 0.095,-0.549836 0.33922,-0.975075 0.73302,-1.273899 0.40739,-0.298823 0.90328,-0.446692 1.4872,-0.446692 z m 41.10576,0 c 0.61108,0 1.11974,0.154527 1.52713,0.465304 0.40739,0.310776 0.61085,0.729358 0.61085,1.255287 h -4.3582 c 0.095,-0.549836 0.33921,-0.975075 0.73302,-1.273899 0.4074,-0.298823 0.90328,-0.446692 1.4872,-0.446692 z m -75.7952,2.438193 h 2.52799 c 0.58392,0 1.03676,0.125367 1.36268,0.376379 0.33949,0.251012 0.50983,0.597955 0.50983,1.040214 0,0.442258 -0.16278,0.782542 -0.48869,1.021601 -0.31233,0.227105 -0.75995,0.341222 -1.34388,0.341222 h -2.56793 z" /><path
       d="m 188.10747,103.78736 -3.49721,13.4155 h -3.95585 l -2.14036,-8.82901 -2.21681,8.82901 h -3.95585 l -3.40165,-13.4155 h 3.4972 l 1.93015,9.76541 2.3888,-9.76541 h 3.59275 l 2.29325,9.76541 1.94926,-9.76541 z m 11.69556,7.9117 q 0,0.45865 -0.0573,0.95552 h -7.39572 q 0.0764,0.99374 0.63064,1.52883 0.57331,0.51599 1.39506,0.51599 1.22306,0 1.70082,-1.03197 h 3.4781 q -0.26755,1.05108 -0.97463,1.89193 -0.68798,0.84086 -1.73905,1.31862 -1.05107,0.47776 -2.35058,0.47776 -1.56705,0 -2.79012,-0.66886 -1.22306,-0.66887 -1.91104,-1.91104 -0.68797,-1.24218 -0.68797,-2.90478 0,-1.66261 0.66886,-2.90478 0.68798,-1.24218 1.91104,-1.91104 1.22307,-0.66887 2.80923,-0.66887 1.54794,0 2.7519,0.64976 1.20395,0.64975 1.87282,1.8537 0.68797,1.20396 0.68797,2.80923 z m -3.34432,-0.85996 q 0,-0.84086 -0.57331,-1.33773 -0.57331,-0.49687 -1.43328,-0.49687 -0.82175,0 -1.39506,0.47776 -0.5542,0.47776 -0.68797,1.35684 z m 8.33212,-2.79012 q 0.45865,-0.74531 1.31862,-1.20396 0.85997,-0.45865 1.96837,-0.45865 1.31862,0 2.3888,0.66887 1.07018,0.66886 1.68171,1.91104 0.63065,1.24217 0.63065,2.88567 0,1.64349 -0.63065,2.90478 -0.61153,1.24217 -1.68171,1.93015 -1.07018,0.66886 -2.3888,0.66886 -1.12751,0 -1.96837,-0.43954 -0.84086,-0.45865 -1.31862,-1.20395 v 1.49061 h -3.26788 v -14.1417 h 3.26788 z m 4.66294,3.80297 q 0,-1.22307 -0.68798,-1.91104 -0.66886,-0.70709 -1.6626,-0.70709 -0.97463,0 -1.66261,0.70709 -0.66886,0.70708 -0.66886,1.93015 0,1.22306 0.66886,1.93015 0.68798,0.70708 1.66261,0.70708 0.97463,0 1.6626,-0.70708 0.68798,-0.7262 0.68798,-1.94926 z m 13.9506,5.48468 q -1.4715,0 -2.63723,-0.47776 -1.16574,-0.47776 -1.87282,-1.41417 -0.68798,-0.93641 -0.7262,-2.25503 h 3.4781 q 0.0764,0.74531 0.51598,1.14663 0.43954,0.38221 1.14662,0.38221 0.7262,0 1.14662,-0.32488 0.42043,-0.34399 0.42043,-0.93641 0,-0.49687 -0.34398,-0.82175 -0.32488,-0.32487 -0.82175,-0.53509 -0.47776,-0.21021 -1.37595,-0.47776 -1.29951,-0.40132 -2.12125,-0.80264 -0.82175,-0.40131 -1.41417,-1.18484 -0.59243,-0.78353 -0.59243,-2.04481 0,-1.87282 1.35684,-2.92389 1.35684,-1.07019 3.53543,-1.07019 2.2168,0 3.57364,1.07019 1.35684,1.05107 1.45239,2.943 h -3.53542 q -0.0382,-0.64976 -0.47776,-1.01285 -0.43954,-0.38221 -1.12752,-0.38221 -0.59242,0 -0.95552,0.32488 -0.36309,0.30576 -0.36309,0.89818 0,0.64976 0.61153,1.01286 0.61153,0.36309 1.91104,0.78352 1.29951,0.43954 2.10214,0.84086 0.82175,0.40132 1.41417,1.16573 0.59242,0.76442 0.59242,1.96837 0,1.14663 -0.59242,2.08304 -0.57331,0.93641 -1.68171,1.49061 -1.10841,0.5542 -2.61813,0.5542 z m 11.75289,0.0191 q -1.56705,0 -2.82834,-0.66886 -1.24217,-0.66887 -1.96837,-1.91104 -0.70708,-1.24218 -0.70708,-2.90478 0,-1.6435 0.72619,-2.88567 0.7262,-1.26129 1.98749,-1.93015 1.26128,-0.66887 2.82833,-0.66887 1.56706,0 2.82834,0.66887 1.26129,0.66886 1.98749,1.93015 0.72619,1.24217 0.72619,2.88567 0,1.64349 -0.74531,2.90478 -0.72619,1.24217 -2.00659,1.91104 -1.26128,0.66886 -2.82834,0.66886 z m 0,-2.82834 q 0.93641,0 1.58617,-0.68797 0.66886,-0.68798 0.66886,-1.96837 0,-1.2804 -0.64975,-1.96837 -0.63065,-0.68798 -1.56706,-0.68798 -0.95552,0 -1.58616,0.68798 -0.63064,0.66886 -0.63064,1.96837 0,1.28039 0.61153,1.96837 0.63064,0.68797 1.56705,0.68797 z m 10.58715,-11.46624 v 14.1417 h -3.26788 v -14.1417 z m 12.89952,3.4781 v 10.6636 h -3.26788 v -1.45239 q -0.49687,0.70708 -1.35684,1.14662 -0.84086,0.42043 -1.87282,0.42043 -1.22306,0 -2.15947,-0.53509 -0.93641,-0.5542 -1.45239,-1.58616 -0.51598,-1.03197 -0.51598,-2.42702 v -6.22999 h 3.24876 v 5.79045 q 0,1.07018 0.5542,1.6626 0.55421,0.59242 1.49062,0.59242 0.95552,0 1.50972,-0.59242 0.5542,-0.59242 0.5542,-1.6626 v -5.79045 z m 8.29391,7.89259 v 2.77101 h -1.6626 q -1.77727,0 -2.77101,-0.85997 -0.99374,-0.87908 -0.99374,-2.84745 v -4.24251 h -1.29951 v -2.71367 h 1.29951 v -2.59902 h 3.26788 v 2.59902 h 2.14036 v 2.71367 h -2.14036 v 4.28073 q 0,0.47776 0.22932,0.68798 0.22933,0.21021 0.76442,0.21021 z m 3.45898,-9.001 q -0.85997,0 -1.41417,-0.49687 -0.53509,-0.51598 -0.53509,-1.26128 0,-0.76442 0.53509,-1.26129 0.5542,-0.51598 1.41417,-0.51598 0.84086,0 1.37595,0.51598 0.5542,0.49687 0.5542,1.26129 0,0.7453 -0.5542,1.26128 -0.53509,0.49687 -1.37595,0.49687 z m 1.62438,1.10841 v 10.6636 h -3.26787 v -10.6636 z m 7.22374,10.81648 q -1.56705,0 -2.82834,-0.66886 -1.24217,-0.66887 -1.96837,-1.91104 -0.70708,-1.24218 -0.70708,-2.90478 0,-1.6435 0.72619,-2.88567 0.7262,-1.26129 1.98748,-1.93015 1.26129,-0.66887 2.82834,-0.66887 1.56705,0 2.82834,0.66887 1.26129,0.66886 1.98748,1.93015 0.7262,1.24217 0.7262,2.88567 0,1.64349 -0.74531,2.90478 -0.72619,1.24217 -2.00659,1.91104 -1.26129,0.66886 -2.82834,0.66886 z m 0,-2.82834 q 0.93641,0 1.58616,-0.68797 0.66887,-0.68798 0.66887,-1.96837 0,-1.2804 -0.64976,-1.96837 -0.63064,-0.68798 -1.56705,-0.68798 -0.95552,0 -1.58616,0.68798 -0.63064,0.66886 -0.63064,1.96837 0,1.28039 0.61153,1.96837 0.63064,0.68797 1.56705,0.68797 z m 13.8168,-8.10281 q 1.87282,0 2.98123,1.22307 1.12751,1.20395 1.12751,3.32521 v 6.22999 h -3.24877 v -5.79045 q 0,-1.07019 -0.5542,-1.66261 -0.5542,-0.59242 -1.49061,-0.59242 -0.93641,0 -1.49061,0.59242 -0.5542,0.59242 -0.5542,1.66261 v 5.79045 h -3.26788 v -10.6636 h 3.26788 v 1.41416 q 0.49687,-0.70708 1.33772,-1.1084 0.84086,-0.42043 1.89193,-0.42043 z m 10.72093,10.93115 q -1.39506,0 -2.48435,-0.47776 -1.08929,-0.47776 -1.71994,-1.29951 -0.63064,-0.84085 -0.70708,-1.87282 h 3.22966 q 0.0573,0.55421 0.51598,0.89819 0.45865,0.34399 1.12751,0.34399 0.61153,0 0.93641,-0.22932 0.34399,-0.24844 0.34399,-0.63065 0,-0.45865 -0.47776,-0.66886 -0.47776,-0.22933 -1.54795,-0.49687 -1.14662,-0.26755 -1.91104,-0.5542 -0.76441,-0.30577 -1.31861,-0.93641 -0.5542,-0.64976 -0.5542,-1.73905 0,-0.9173 0.49687,-1.6626 0.51598,-0.76442 1.49061,-1.20396 0.99374,-0.43954 2.35058,-0.43954 2.00659,0 3.15321,0.99374 1.16574,0.99374 1.33773,2.63724 h -3.01944 q -0.0764,-0.5542 -0.49687,-0.87908 -0.40132,-0.32488 -1.07019,-0.32488 -0.57331,0 -0.87907,0.22933 -0.30577,0.21021 -0.30577,0.59242 0,0.45865 0.47776,0.68797 0.49687,0.22933 1.52883,0.45865 1.18485,0.30577 1.93015,0.61154 0.74531,0.28665 1.29951,0.95552 0.57331,0.64975 0.59242,1.75815 0,0.93641 -0.53509,1.68172 -0.51598,0.72619 -1.50972,1.14662 -0.97463,0.42043 -2.27414,0.42043 z"
       id="text2"
       style="font-weight:bold;font-size:19.1104px;font-family:Poppins;-inkscape-font-specification:'Poppins, Bold';fill:#ffffff;stroke:#ffffff;stroke-width:0.154614;stroke-linecap:round;stroke-linejoin:round"
       transform="scale(0.98449914,1.0157449)"
       aria-label="Web Solutions" /></g></svg>
